# xmcd CD database file
#
# Track frame offsets:
#	150
#	17207
#	36876
#	53802
#	69711
#	93921
#	111209
#	126713
#	142867
#	161971
#	177845
#	192712
#	209354
#	228656
#	246556
#	261783
#	276307
#	291119
#	312545
#
# Disc length: 4406 seconds
#
# Revision: 0
# Processed by: cddbd v1.5.2PL0 Copyright (c) Steve Scherf et al.
# Submitted via: CDex 1.70beta2
#
DISCID=35113413
DTITLE=Charlie Landsborough - Smile Plus
DYEAR=1900
DGENRE=Country
TTITLE0=Sentimentally Yours
TTITLE1=Gone, But I Can't Let Go
TTITLE2=Smile
TTITLE3=Little Bit of Heaven
TTITLE4=The Bluebell Man
TTITLE5=Peace of Mind
TTITLE6=What Makes Me Happy
TTITLE7=After All These Years
TTITLE8=Child of Candlelight
TTITLE9=Raining in My Heart
TTITLE10=Takin' My Time
TTITLE11=Marie
TTITLE12=Counterfeit Man
TTITLE13=Like You Once Loved Me
TTITLE14=Getting Out
TTITLE15=Silver of My Tears
TTITLE16=What Happened to Love
TTITLE17=When You Were Sweet Sixteen
TTITLE18=What Colout is the Wind
EXTD=YEAR: 1900
EXTT0=
EXTT1=
EXTT2=
EXTT3=
EXTT4=
EXTT5=
EXTT6=
EXTT7=
EXTT8=
EXTT9=
EXTT10=
EXTT11=
EXTT12=
EXTT13=
EXTT14=
EXTT15=
EXTT16=
EXTT17=
EXTT18=
PLAYORDER=
